<svg width="64" height="64" viewBox="0 0 64 64" fill="none" xmlns="http://www.w3.org/2000/svg">
<path d="M45.3334 61.9984C41.7405 61.9984 38.877 61.8548 36.6769 61.6694C32.2714 61.2981 29.2018 57.7357 28.999 53.4932C28.8294 49.9461 28.6667 44.6392 28.6667 37.3317C28.6667 30.0242 28.8294 24.7173 28.999 21.1702C29.2018 16.9277 32.2714 13.3653 36.6769 12.9941C38.877 12.8086 41.7405 12.665 45.3334 12.665C48.9263 12.665 51.7898 12.8086 53.99 12.9941C58.3954 13.3653 61.465 16.9277 61.6678 21.1702C61.8374 24.7173 62.0001 30.0242 62.0001 37.3317C62.0001 44.6392 61.8374 49.9461 61.6678 53.4932C61.465 57.7357 58.3954 61.2981 53.99 61.6694C51.7898 61.8548 48.9263 61.9984 45.3334 61.9984Z" fill="#929292"/>
<path d="M18.6667 51.3324C15.0737 51.3324 12.2102 51.1888 10.0101 51.0034C5.60464 50.6321 2.53508 47.0697 2.33225 42.8272C2.16267 39.2801 2 33.9732 2 26.6657C2 19.3582 2.16267 14.0513 2.33225 10.5042C2.53508 6.26166 5.60465 2.69934 10.0101 2.32804C12.2102 2.14261 15.0737 1.99902 18.6667 1.99902C22.2596 1.99902 25.1231 2.14261 27.3232 2.32804C31.7287 2.69934 34.7983 6.26165 35.0011 10.5042C35.1707 14.0513 35.3333 19.3582 35.3333 26.6657C35.3333 33.9732 35.1707 39.2801 35.0011 42.8272C34.7983 47.0697 31.7287 50.6321 27.3232 51.0034C25.1231 51.1888 22.2596 51.3324 18.6667 51.3324Z" fill="#EEEEEE"/>
<path fill-rule="evenodd" clip-rule="evenodd" d="M42.6667 27.333C41.5622 27.333 40.6667 28.2285 40.6667 29.333V45.333C40.6667 46.4375 41.5622 47.333 42.6667 47.333H49.3334C52.6471 47.333 55.3334 44.6467 55.3334 41.333C55.3334 39.4135 54.4321 37.7045 53.0294 36.6062C53.6433 35.6649 54.0001 34.5406 54.0001 33.333C54.0001 30.0193 51.3138 27.333 48.0001 27.333H42.6667ZM50.0001 33.333C50.0001 34.4375 49.1046 35.333 48.0001 35.333H44.6667V31.333H48.0001C49.1046 31.333 50.0001 32.2285 50.0001 33.333ZM44.6667 43.333V39.333H49.3334C50.4379 39.333 51.3334 40.2285 51.3334 41.333C51.3334 42.4375 50.4379 43.333 49.3334 43.333H44.6667Z" fill="#EEEEEE"/>
<path fill-rule="evenodd" clip-rule="evenodd" d="M22.7836 35.3382L21.8291 32.6656H14.1718L13.2173 35.3382C12.8458 36.3785 11.7013 36.9206 10.6611 36.5492C9.6209 36.1776 9.07881 35.0331 9.45031 33.9929L14.8614 18.8421C15.9147 15.8925 20.0862 15.8925 21.1396 18.8421L26.5506 33.9929C26.9222 35.0331 26.38 36.1776 25.3398 36.5492C24.2995 36.9206 23.1551 36.3785 22.7836 35.3382ZM18.0003 21.9457L20.4003 28.666H15.6002L18.0003 21.9457Z" fill="#929292"/>
</svg>
