<svg width="21" height="21" viewBox="0 0 21 21" fill="none" xmlns="http://www.w3.org/2000/svg">
<g clip-path="url(#clip0_2061_9238)">
<path d="M3.00008 3.00098H18.0001C18.2211 3.00098 18.4331 3.08877 18.5893 3.24505C18.7456 3.40133 18.8334 3.6133 18.8334 3.83431V17.1676C18.8334 17.3887 18.7456 17.6006 18.5893 17.7569C18.4331 17.9132 18.2211 18.001 18.0001 18.001H3.00008C2.77907 18.001 2.56711 17.9132 2.41083 17.7569C2.25455 17.6006 2.16675 17.3887 2.16675 17.1676V3.83431C2.16675 3.6133 2.25455 3.40133 2.41083 3.24505C2.56711 3.08877 2.77907 3.00098 3.00008 3.00098ZM10.5501 10.2368L5.20675 5.69931L4.12758 6.96931L10.5609 12.4318L16.8784 6.96514L15.7884 5.70431L10.5501 10.2368Z" fill="white"/>
</g>
<defs>
<clipPath id="clip0_2061_9238">
<rect width="20" height="20" fill="white" transform="translate(0.5 0.500977)"/>
</clipPath>
</defs>
</svg>
