<svg width="216" height="75" viewBox="0 0 216 75" fill="none" xmlns="http://www.w3.org/2000/svg">
<path d="M73.8755 41.603C75.103 41.603 76.1259 40.58 76.1259 39.3525C76.1259 38.125 75.103 37.1021 73.8755 37.1021C72.648 37.1021 71.625 38.125 71.625 39.3525C71.625 40.58 72.648 41.603 73.8755 41.603ZM72.0341 53.6738H75.5122V42.8305H72.0341V53.6738Z" fill="#63AB9D"/>
<path d="M78.1716 53.6733H81.6497V46.9219C81.8543 46.5127 82.468 45.6943 83.6956 45.6943C84.7185 45.6943 85.3323 46.5127 85.3323 47.5356V53.8779H88.8103V47.5356C88.8103 44.2622 86.969 42.6255 84.5139 42.6255C83.2864 42.6255 82.2634 43.0347 81.6497 43.6484V42.8301H78.1716V53.6733Z" fill="#63AB9D"/>
<path d="M96.7895 51.0137C95.3574 51.0137 94.3345 49.9908 94.3345 48.3541C94.3345 46.7173 95.3574 45.6944 96.7895 45.6944C97.8125 45.6944 98.4263 46.1035 98.8354 46.7173L101.495 44.6714C100.472 43.2393 98.8354 42.4209 96.7895 42.4209C92.9023 42.4209 90.6519 45.0806 90.6519 48.3541C90.6519 51.6275 92.9023 54.2872 96.7895 54.2872C98.8354 54.2872 100.472 53.4688 101.495 52.0367L98.8354 49.9908C98.2217 50.3999 97.6079 51.0137 96.7895 51.0137Z" fill="#63AB9D"/>
<path d="M109.679 48.9683C109.679 50.1958 109.065 51.0142 107.837 51.0142C106.61 51.0142 105.996 50.1958 105.996 48.9683V42.8306H102.518V48.7637C102.518 52.0371 104.359 54.083 107.837 54.083C111.111 54.083 113.157 52.0371 113.157 48.7637V42.8306H109.679V48.9683Z" fill="#63AB9D"/>
<path d="M127.683 48.1495C127.683 44.876 125.637 42.2164 122.159 42.2164C120.727 42.2164 119.908 42.6255 119.09 43.2393V37.3062H115.612V53.6734H119.09V53.0596C119.908 53.6734 120.727 54.0826 122.159 54.0826C125.637 54.0826 127.683 51.4229 127.683 48.1495ZM121.545 45.4898C122.977 45.4898 124 46.5127 124 48.1495C124 49.7862 122.977 50.8091 121.545 50.8091C120.522 50.8091 119.704 50.3999 119.09 49.5816V46.9219C119.704 46.1035 120.522 45.4898 121.545 45.4898Z" fill="#63AB9D"/>
<path d="M132.797 54.0825C134.025 54.0825 135.252 53.6733 135.866 52.855V53.6733H139.344V46.7173C139.344 44.2622 137.707 42.2163 134.229 42.2163C132.184 42.2163 130.547 43.0346 129.524 44.4667L131.979 46.3081C132.388 45.4897 133.206 45.0806 134.025 45.0806C135.048 45.0806 135.662 45.6943 135.866 46.5126L132.797 47.1265C130.342 47.5356 129.115 48.7632 129.115 50.3999C128.91 52.855 130.547 54.0825 132.797 54.0825ZM132.388 50.3999C132.388 49.9907 132.593 49.5815 133.616 49.377L135.866 48.9678V49.9907C135.457 50.6045 134.639 51.2183 133.616 51.2183C132.797 51.4228 132.388 51.0137 132.388 50.3999Z" fill="#63AB9D"/>
<path d="M142.413 49.3765C142.413 52.0361 143.641 53.8774 146.709 53.8774C147.732 53.8774 148.346 53.6729 148.96 53.4683V50.3994C148.551 50.604 148.142 50.604 147.323 50.604C146.505 50.604 145.891 50.1948 145.891 49.1719V45.4892H148.96V42.8296H145.891V40.1699H142.413V42.8296H140.367V45.8984H142.413V49.3765Z" fill="#63AB9D"/>
<path d="M161.031 52.0367L158.576 50.1954C158.167 50.8091 157.144 51.2183 156.121 51.2183C154.893 51.2183 153.87 50.8091 153.461 49.377H160.622C160.826 48.9678 160.826 48.354 160.826 47.5356C160.826 44.4668 158.78 42.4209 155.711 42.4209C152.029 42.4209 149.983 45.0806 149.983 48.3541C149.983 51.6275 152.029 54.2872 156.121 54.2872C158.371 54.0826 160.008 53.2642 161.031 52.0367ZM155.711 45.0806C156.939 45.0806 157.553 45.8989 157.553 46.7173H153.666C153.87 45.6944 154.484 45.0806 155.711 45.0806Z" fill="#63AB9D"/>
<path d="M169.828 48.9683C169.828 50.1958 169.214 51.0142 167.986 51.0142C166.759 51.0142 166.145 50.1958 166.145 48.9683V42.8306H162.667V48.7637C162.667 52.0371 164.508 54.083 167.986 54.083C171.26 54.083 173.306 52.0371 173.306 48.7637V42.8306H169.828V48.9683Z" fill="#63AB9D"/>
<path d="M175.761 53.6734H179.239V46.9219C179.444 46.5127 180.262 45.899 181.489 45.899C182.103 45.899 182.512 45.899 182.922 46.1036V42.6255C182.717 42.6255 182.308 42.4209 181.899 42.4209C180.671 42.4209 179.853 42.8301 179.239 43.4438V42.8301H175.761V53.6734Z" fill="#63AB9D"/>
<path d="M71.4204 68.8135C71.4204 72.087 73.4663 74.7466 76.9443 74.7466C78.3765 74.7466 79.1948 74.3374 80.0132 73.7237V74.3374H83.4912V57.9702H80.0132V63.9033C79.1948 63.2895 78.3765 62.8804 76.9443 62.8804C73.4663 62.8804 71.4204 65.5401 71.4204 68.8135ZM75.103 68.8135C75.103 67.1768 75.9214 66.1538 77.5581 66.1538C78.581 66.1538 79.3994 66.563 80.0132 67.3814V70.2456C79.3994 71.064 78.581 71.4732 77.5581 71.4732C75.9214 71.4732 75.103 70.4502 75.103 68.8135Z" fill="#63AB9D"/>
<path d="M96.3799 72.4961L93.9248 70.6548C93.5156 71.2686 92.4927 71.6778 91.4697 71.6778C90.2422 71.6778 89.2193 71.2686 88.8101 69.8365H95.9707C96.1753 69.4273 96.1753 68.8135 96.1753 67.9951C96.1753 64.9263 94.1294 62.8804 91.0606 62.8804C87.378 62.8804 85.332 65.5401 85.332 68.8135C85.332 72.087 87.3779 74.7466 91.4697 74.7466C93.7202 74.7466 95.357 73.9283 96.3799 72.4961ZM91.0606 65.5401C92.2881 65.5401 92.9019 66.3584 92.9019 67.1768H89.0147C89.2193 66.1538 89.833 65.5401 91.0606 65.5401Z" fill="#63AB9D"/>
<path d="M97.4036 72.4961C98.4265 73.7237 99.8586 74.542 102.109 74.542C104.155 74.542 106.201 73.3145 106.201 70.8594C106.201 66.9722 101.086 67.586 101.086 66.1538C101.086 65.7446 101.291 65.5401 101.904 65.5401C102.723 65.5401 103.337 66.1539 103.95 66.7676L106.201 64.7217C105.383 63.6988 103.746 62.8804 101.904 62.8804C99.4494 62.8804 97.8127 64.3125 97.8127 66.563C97.8127 70.4502 102.927 69.8364 102.927 71.2686C102.927 71.6778 102.723 72.0869 101.904 72.0869C100.882 72.0869 100.268 71.4732 99.654 70.6548L97.4036 72.4961Z" fill="#63AB9D"/>
<path d="M114.589 70.04C114.589 72.6997 115.816 74.541 118.885 74.541C119.908 74.541 120.522 74.3364 121.135 74.1318V71.0629C120.726 71.2675 120.317 71.2676 119.499 71.2676C118.68 71.2676 118.067 70.8584 118.067 69.8355V66.1528H121.135V63.2886H118.067V60.6289H114.589V63.2886H112.543V66.3574H114.589V70.04Z" fill="#63AB9D"/>
<path d="M133.002 72.4961L130.547 70.6548C130.138 71.2686 129.115 71.6778 128.092 71.6778C126.864 71.6778 125.842 71.2686 125.432 69.8365H132.593C132.798 69.4273 132.798 68.8135 132.798 67.9951C132.798 64.9263 130.752 62.8804 127.683 62.8804C124 62.8804 121.954 65.5401 121.954 68.8135C121.954 72.087 124 74.7466 128.092 74.7466C130.343 74.7466 131.979 73.9283 133.002 72.4961ZM127.683 65.5401C128.91 65.5401 129.524 66.3584 129.524 67.1768H125.637C125.842 66.1538 126.66 65.5401 127.683 65.5401Z" fill="#63AB9D"/>
<path d="M135.048 74.3369H138.526V67.5855C138.73 67.1763 139.549 66.5625 140.776 66.5625C141.39 66.5625 141.799 66.5625 142.208 66.7671V63.2891C142.004 63.2891 141.594 63.0845 141.185 63.0845C139.958 63.0845 139.139 63.4937 138.526 64.1074V63.2891H135.048V74.3369Z" fill="#63AB9D"/>
<path d="M143.845 74.3369H147.323V67.5855C147.528 67.1763 148.346 66.5625 149.574 66.5625C150.187 66.5625 150.596 66.5625 151.006 66.7671V63.2891C150.801 63.2891 150.392 63.0845 149.983 63.0845C148.755 63.0845 147.937 63.4937 147.323 64.1074V63.2891H143.845V74.3369Z" fill="#63AB9D"/>
<path d="M154.279 62.0615C155.507 62.0615 156.53 61.0385 156.53 59.811C156.53 58.5834 155.507 57.5605 154.279 57.5605C153.052 57.5605 152.029 58.5834 152.029 59.811C152.029 61.0385 153.052 62.0615 154.279 62.0615ZM152.438 74.3369H155.916V63.289H152.438V74.3369Z" fill="#63AB9D"/>
<path d="M159.394 70.04C159.394 72.6997 160.622 74.541 163.69 74.541C164.713 74.541 165.327 74.3364 165.941 74.1318V71.0629C165.532 71.2675 165.123 71.2676 164.304 71.2676C163.486 71.2676 162.872 70.8584 162.872 69.8355V66.1528H165.941V63.2886H162.872V60.6289H159.394V63.2886H157.348V66.3574H159.394V70.04Z" fill="#63AB9D"/>
<path d="M172.896 62.8804C169.214 62.8804 166.759 65.5401 166.759 68.8135C166.759 72.087 169.214 74.7466 172.896 74.7466C176.579 74.7466 179.034 72.087 179.034 68.8135C179.034 65.3355 176.579 62.8804 172.896 62.8804ZM173.101 71.4732C171.669 71.4732 170.646 70.4503 170.646 68.8135C170.646 67.1768 171.669 66.1538 173.101 66.1538C174.533 66.1538 175.556 67.1768 175.556 68.8135C175.556 70.4503 174.329 71.4732 173.101 71.4732Z" fill="#63AB9D"/>
<path d="M182.717 62.0615C183.945 62.0615 184.968 61.0385 184.968 59.811C184.968 58.5834 183.945 57.5605 182.717 57.5605C181.49 57.5605 180.467 58.5834 180.467 59.811C180.467 61.0385 181.49 62.0615 182.717 62.0615ZM181.08 74.3369H184.558V63.289H181.08V74.3369Z" fill="#63AB9D"/>
<path d="M187.014 74.3369H190.492V67.5855C190.696 67.1763 191.515 66.5625 192.742 66.5625C193.356 66.5625 193.765 66.5625 194.174 66.7671V63.2891C193.97 63.2891 193.561 63.0845 193.151 63.0845C191.924 63.0845 191.105 63.4937 190.492 64.1074V63.2891H187.014V74.3369Z" fill="#63AB9D"/>
<path d="M205.835 72.4961L203.38 70.6548C202.971 71.2686 201.948 71.6778 200.925 71.6778C199.697 71.6778 198.675 71.2686 198.265 69.8365H205.426C205.631 69.4273 205.631 68.8135 205.631 67.9951C205.631 64.9263 203.585 62.8804 200.516 62.8804C196.833 62.8804 194.787 65.5401 194.787 68.8135C194.787 72.087 196.833 74.7466 200.925 74.7466C203.176 74.7466 204.812 73.9283 205.835 72.4961ZM200.516 65.5401C201.743 65.5401 202.357 66.3584 202.357 67.1768H198.47C198.675 66.1538 199.288 65.5401 200.516 65.5401Z" fill="#63AB9D"/>
<path d="M206.859 72.4961C207.882 73.7237 209.314 74.542 211.564 74.542C213.61 74.542 215.656 73.3145 215.656 70.8594C215.656 66.9722 210.541 67.586 210.541 66.1538C210.541 65.7446 210.746 65.5401 211.36 65.5401C212.178 65.5401 212.792 66.1539 213.405 66.7676L215.656 64.7217C214.838 63.6988 213.201 62.8804 211.36 62.8804C208.904 62.8804 207.268 64.3125 207.268 66.563C207.268 70.4502 212.383 69.8364 212.383 71.2686C212.383 71.6778 212.178 72.0869 211.36 72.0869C210.337 72.0869 209.723 71.4732 209.109 70.6548L206.859 72.4961Z" fill="#63AB9D"/>
<path d="M16.5903 28.7139C19.4546 28.7139 21.705 27.2818 22.9325 25.2359V21.3487L16.7949 22.3716C13.9306 22.7808 12.7031 24.0084 12.7031 25.8497C12.9077 27.4864 14.3398 28.7139 16.5903 28.7139ZM8.20215 25.8497C8.20215 22.3716 10.8618 19.9165 15.5674 19.0982L22.9325 17.8706V16.6431C22.9325 13.7789 20.8867 12.1421 18.0224 12.1421C15.5673 12.1421 13.5215 13.165 12.2939 15.0064L8.81589 12.3467C10.8618 9.68704 14.1352 7.8457 18.0224 7.8457C24.1601 7.8457 27.4335 11.5283 27.4335 16.4385V31.3736H22.728V28.7139C21.0913 30.7598 18.227 31.9874 15.5674 31.9874C11.271 32.3965 8.20215 29.9415 8.20215 25.8497Z" fill="#2D3E88"/>
<path d="M30.2979 9.07323H35.0034V11.3237C36.6402 9.48242 38.8906 8.25488 42.1641 8.25488C47.0742 8.25488 50.9614 11.5283 50.9614 18.2798V31.9873H46.2559V18.2798C46.2559 14.5972 44.21 12.5513 41.1411 12.5513C38.0723 12.5513 36.231 14.3926 35.0034 16.4385V31.7827H30.2979V9.07323Z" fill="#2D3E88"/>
<path d="M27.0243 54.0825L30.707 56.9468C28.6611 59.811 25.183 61.6524 20.8867 61.6524C13.1123 61.6524 8.20215 55.9239 8.20215 49.1724C8.20215 42.4209 13.1123 36.6924 20.8867 36.6924C25.183 36.6924 28.6611 38.5337 30.707 41.3979L27.0243 44.2622C25.7968 42.4209 23.5463 41.1934 20.8867 41.1934C16.3857 41.1934 13.1123 44.6714 13.1123 49.1724C13.1123 53.6734 16.3857 57.1514 20.8867 57.1514C23.5463 57.1514 25.7968 55.9238 27.0243 54.0825Z" fill="#2D3E88"/>
<path d="M38.0725 42.2164H32.9578V38.1246H38.0725V32.396H42.778V38.1246H50.9616V42.2164H42.778V52.855C42.778 55.9239 44.4147 56.9468 46.8698 56.9468C48.3019 56.9468 49.9386 56.7423 50.757 56.5377V60.6295C49.7341 61.0386 47.8928 61.2432 46.0515 61.2432C40.7321 61.2432 37.8679 58.3789 37.8679 52.855V42.2164H38.0725Z" fill="#2D3E88"/>
<path d="M54.03 5.18558V8.25443H58.531V3.95802C58.531 2.3213 57.0989 0.68457 55.4622 0.68457H50.7566V4.98097L54.03 5.18558Z" fill="#2D3E88"/>
<path d="M58.1222 68.814V49.9917H62.6232V70.0415C62.6232 71.6782 61.1911 73.315 59.5544 73.315H39.0955V69.0185L58.1222 68.814Z" fill="#63AB9D"/>
<path d="M5.13356 64.9263V61.8574H0.632568V66.1538C0.632568 67.7905 2.06469 69.4273 3.70141 69.4273H8.407V65.1309L5.13356 64.9263Z" fill="#2D3E88"/>
<path d="M5.13356 5.18558V8.25443H0.632568V3.95802C0.632568 2.3213 2.06469 0.68457 3.70141 0.68457H8.407V4.98097L5.13356 5.18558Z" fill="#2D3E88"/>
</svg>
