<svg width="22" height="24" viewBox="0 0 22 24" fill="none" xmlns="http://www.w3.org/2000/svg">
<path fill-rule="evenodd" clip-rule="evenodd" d="M0.600098 2.39951C0.600098 1.76299 0.852954 1.15254 1.30304 0.702455C1.75313 0.252368 2.36358 -0.000488281 3.0001 -0.000488281L19.0001 -0.000488281C19.6366 -0.000488281 20.2471 0.252368 20.6972 0.702455C21.1472 1.15254 21.4001 1.76299 21.4001 2.39951V21.5995C21.4001 22.236 21.1472 22.8465 20.6972 23.2966C20.2471 23.7467 19.6366 23.9995 19.0001 23.9995H3.0001C2.36358 23.9995 1.75313 23.7467 1.30304 23.2966C0.852954 22.8465 0.600098 22.236 0.600098 21.5995V2.39951ZM5.4001 7.99951H16.6001V6.39951H5.4001V7.99951ZM5.4001 14.3995H7.0001V12.7995H5.4001V14.3995ZM11.8001 14.3995H10.2001V12.7995H11.8001V14.3995ZM15.0001 14.3995H16.6001V12.7995H15.0001V14.3995ZM7.0001 19.1995H5.4001V17.5995H7.0001V19.1995ZM10.2001 19.1995H11.8001V17.5995H10.2001V19.1995ZM16.6001 19.1995H15.0001V17.5995H16.6001V19.1995Z" fill="white"/>
</svg>
