<svg width="48" height="48" viewBox="0 0 48 48" fill="none" xmlns="http://www.w3.org/2000/svg">
<path d="M12.7999 14.4003H35.1999M12.7999 27.2003H15.9999M22.3999 27.2003H25.5999M31.9999 27.2003H35.1999M12.7999 36.8003H15.9999M22.3999 36.8003H25.5999M31.9999 36.8003H35.1999M7.99993 46.4003H39.9999C40.8486 46.4003 41.6626 46.0632 42.2627 45.4631C42.8628 44.863 43.1999 44.049 43.1999 43.2003V4.80034C43.1999 3.95165 42.8628 3.13772 42.2627 2.5376C41.6626 1.93748 40.8486 1.60034 39.9999 1.60034H7.99993C7.15123 1.60034 6.3373 1.93748 5.73718 2.5376C5.13707 3.13772 4.79993 3.95165 4.79993 4.80034V43.2003C4.79993 44.049 5.13707 44.863 5.73718 45.4631C6.3373 46.0632 7.15123 46.4003 7.99993 46.4003Z" stroke="white" stroke-width="3.2"/>
</svg>
