<svg width="16" height="16" viewBox="0 0 16 16" fill="none" xmlns="http://www.w3.org/2000/svg">
<path d="M8 7.99951H7.46667C7.46654 8.0696 7.48023 8.13902 7.50695 8.20381C7.53368 8.2686 7.57291 8.32749 7.6224 8.37711L8 7.99951ZM8 14.9328C6.16117 14.9328 4.39765 14.2024 3.09739 12.9021C1.79714 11.6019 1.06667 9.83835 1.06667 7.99951H0C0 10.1212 0.842855 12.1561 2.34315 13.6564C3.84344 15.1567 5.87827 15.9995 8 15.9995V14.9328ZM14.9333 7.99951C14.9333 8.91001 14.754 9.81159 14.4056 10.6528C14.0571 11.494 13.5464 12.2583 12.9026 12.9021C12.2588 13.5459 11.4945 14.0566 10.6533 14.4051C9.81208 14.7535 8.9105 14.9328 8 14.9328V15.9995C10.1217 15.9995 12.1566 15.1567 13.6569 13.6564C15.1571 12.1561 16 10.1212 16 7.99951H14.9333ZM8 1.06618C8.9105 1.06618 9.81208 1.24551 10.6533 1.59395C11.4945 1.94238 12.2588 2.45309 12.9026 3.0969C13.5464 3.74072 14.0571 4.50505 14.4056 5.34624C14.754 6.18743 14.9333 7.08901 14.9333 7.99951H16C16 5.87778 15.1571 3.84295 13.6569 2.34266C12.1566 0.842366 10.1217 -0.000488281 8 -0.000488281V1.06618ZM8 -0.000488281C5.87827 -0.000488281 3.84344 0.842366 2.34315 2.34266C0.842855 3.84295 0 5.87778 0 7.99951H1.06667C1.06667 6.16068 1.79714 4.39716 3.09739 3.0969C4.39765 1.79665 6.16117 1.06618 8 1.06618V-0.000488281ZM7.46667 3.19951V7.99951H8.53333V3.19951H7.46667ZM7.6224 8.37711L10.8224 11.5771L11.5776 10.8219L8.3776 7.62191L7.6224 8.37711V8.37711Z" fill="#000091"/>
</svg>
