<svg width="16" height="16" viewBox="0 0 16 16" fill="none" xmlns="http://www.w3.org/2000/svg">
<g clip-path="url(#clip0_317_4253)">
<path fill-rule="evenodd" clip-rule="evenodd" d="M0 7.99951C0 5.87778 0.842855 3.84295 2.34315 2.34266C3.84344 0.842366 5.87827 -0.000488281 8 -0.000488281C10.1217 -0.000488281 12.1566 0.842366 13.6569 2.34266C15.1571 3.84295 16 5.87778 16 7.99951C16 10.1212 15.1571 12.1561 13.6569 13.6564C12.1566 15.1567 10.1217 15.9995 8 15.9995C5.87827 15.9995 3.84344 15.1567 2.34315 13.6564C0.842855 12.1561 0 10.1212 0 7.99951H0ZM7.46667 7.99951V3.19951H8.53333V7.77871L11.5776 10.8219L10.8224 11.5771L7.6224 8.37711C7.57286 8.32753 7.5336 8.26864 7.50687 8.20385C7.48015 8.13905 7.46648 8.06961 7.46667 7.99951Z" fill="#000091"/>
</g>
<defs>
<clipPath id="clip0_317_4253">
<rect width="16" height="16" fill="white" transform="translate(0 -0.000488281)"/>
</clipPath>
</defs>
</svg>
