<svg width="16" height="16" viewBox="0 0 16 16" fill="none" xmlns="http://www.w3.org/2000/svg">
<path fill-rule="evenodd" clip-rule="evenodd" d="M8.00012 8.19791V9.59951C7.57577 9.59951 7.16881 9.43094 6.86875 9.13088C6.56869 8.83082 6.40012 8.42386 6.40012 7.99951C6.40012 7.57516 6.56869 7.1682 6.86875 6.86814C7.16881 6.56808 7.57577 6.39951 8.00012 6.39951V8.19791ZM8.00012 5.33284C7.29288 5.33284 6.6146 5.61379 6.1145 6.11389C5.61441 6.61399 5.33345 7.29227 5.33345 7.99951C5.33345 8.70675 5.61441 9.38503 6.1145 9.88513C6.6146 10.3852 7.29288 10.6662 8.00012 10.6662V13.8662C5.13505 13.8662 3.13505 12.4283 1.86999 11.0235C1.18026 10.2522 0.602174 9.38799 0.152653 8.45604C0.115871 8.37783 0.080664 8.29888 0.0470534 8.21924L0.0406534 8.20431L0.0395867 8.20004L0.03852 8.19791L0.533453 7.99951L0.03852 8.19791C-0.0125145 8.07057 -0.0125145 7.92845 0.03852 7.80111L0.10892 7.82991C0.0851841 7.8206 0.0617085 7.81064 0.03852 7.80004V7.79898L0.0406534 7.79471L0.0470534 7.77978C0.0799436 7.69967 0.115519 7.62069 0.15372 7.54298C0.603315 6.6114 1.18139 5.74751 1.87105 4.97658C3.13399 3.57071 5.13399 2.13284 8.00012 2.13284V5.33284ZM8.00012 6.39951V9.59951C8.42447 9.59951 8.83143 9.43094 9.13149 9.13088C9.43155 8.83082 9.60012 8.42386 9.60012 7.99951C9.60012 7.57516 9.43155 7.1682 9.13149 6.86814C8.83143 6.56808 8.42447 6.39951 8.00012 6.39951ZM8.00012 10.6662C8.70736 10.6662 9.38564 10.3852 9.88574 9.88513C10.3858 9.38503 10.6668 8.70675 10.6668 7.99951C10.6668 7.29227 10.3858 6.61399 9.88574 6.11389C9.38564 5.61379 8.70736 5.33284 8.00012 5.33284V2.13284C10.8652 2.13284 12.8652 3.57071 14.1303 4.97658C14.8199 5.74749 15.398 6.61139 15.8476 7.54298C15.8843 7.62121 15.9195 7.70016 15.9532 7.77978L15.9585 7.79471L15.9607 7.79898L15.9617 7.80111L15.5735 7.95684L15.9617 7.80111C16.0128 7.92845 16.0128 8.07057 15.9617 8.19791L15.4668 7.99951L15.9617 8.19898V8.20004L15.9585 8.20431L15.9532 8.21924C15.9205 8.29945 15.8849 8.37844 15.8465 8.45604C15.3969 9.38763 14.8189 10.2515 14.1292 11.0224C12.8663 12.4283 10.8663 13.8662 8.00012 13.8662V10.6662Z" fill="#000091"/>
</svg>
