<svg width="16" height="12" viewBox="0 0 16 12" fill="none" xmlns="http://www.w3.org/2000/svg">
<path fill-rule="evenodd" clip-rule="evenodd" d="M8.00002 -0.000488281C11.5947 -0.000488281 14.5854 2.58618 15.2127 5.99951C14.586 9.41285 11.5947 11.9995 8.00002 11.9995C4.40535 11.9995 1.41469 9.41285 0.787354 5.99951C1.41402 2.58618 4.40535 -0.000488281 8.00002 -0.000488281ZM8.00002 10.6662C10.8001 10.6656 13.2279 8.72931 13.8514 5.99951C13.2256 3.27198 10.7984 1.33853 8.00002 1.33853C5.20163 1.33853 2.77441 3.27198 2.14869 5.99951C2.77214 8.72931 5.19994 10.6656 8.00002 10.6662ZM8.00002 8.99951C6.34317 8.99951 5.00002 7.65637 5.00002 5.99951C5.00002 4.34266 6.34317 2.99951 8.00002 2.99951C9.65687 2.99951 11 4.34266 11 5.99951C11 7.65637 9.65687 8.99951 8.00002 8.99951ZM8.00002 7.66618C8.9205 7.66618 9.66669 6.91999 9.66669 5.99951C9.66669 5.07904 8.9205 4.33285 8.00002 4.33285C7.07955 4.33285 6.33335 5.07904 6.33335 5.99951C6.33335 6.91999 7.07955 7.66618 8.00002 7.66618Z" fill="#000091"/>
</svg>
