<svg width="16" height="16" viewBox="0 0 16 16" fill="none" xmlns="http://www.w3.org/2000/svg">
<g clip-path="url(#clip0_317_4255)">
<path fill-rule="evenodd" clip-rule="evenodd" d="M3.19998 1.5996C3.19998 1.17526 3.36855 0.768291 3.66861 0.468232C3.96867 0.168174 4.37564 -0.000396729 4.79998 -0.000396729L11.3611 -0.000396729L14.9333 2.3804V12.2663C14.9333 12.6906 14.7647 13.0976 14.4647 13.3976C14.1646 13.6977 13.7577 13.8663 13.3333 13.8663H12.8V14.3996C12.8 14.824 12.6314 15.2309 12.3314 15.531C12.0313 15.831 11.6243 15.9996 11.2 15.9996H2.66665C2.2423 15.9996 1.83534 15.831 1.53528 15.531C1.23522 15.2309 1.06665 14.824 1.06665 14.3996V3.73294C1.06665 3.30859 1.23522 2.90162 1.53528 2.60157C1.83534 2.30151 2.2423 2.13294 2.66665 2.13294H3.19998V1.5996ZM3.19998 3.1996H2.66665C2.5252 3.1996 2.38955 3.25579 2.28953 3.35581C2.18951 3.45583 2.13332 3.59149 2.13332 3.73294V14.3996C2.13332 14.5411 2.18951 14.6767 2.28953 14.7767C2.38955 14.8767 2.5252 14.9329 2.66665 14.9329H11.2C11.3414 14.9329 11.4771 14.8767 11.5771 14.7767C11.6771 14.6767 11.7333 14.5411 11.7333 14.3996V13.8663H4.79998C4.37564 13.8663 3.96867 13.6977 3.66861 13.3976C3.36855 13.0976 3.19998 12.6906 3.19998 12.2663V3.1996Z" fill="#0909B9"/>
</g>
<defs>
<clipPath id="clip0_317_4255">
<rect width="16" height="16" fill="white" transform="translate(0 -0.000396729)"/>
</clipPath>
</defs>
</svg>
