<svg width="14" height="16" viewBox="0 0 14 16" fill="none" xmlns="http://www.w3.org/2000/svg">
<path d="M10.2 0.532845L10.4955 0.0891117L10.3611 -0.000488281H10.2V0.532845ZM13.4 2.66618H13.9333V2.38031L13.6955 2.22245L13.4 2.66618ZM12.3333 12.7995H3.79998V13.8662H12.3333V12.7995ZM3.26665 12.2662V1.59951H2.19998V12.2662H3.26665ZM3.79998 1.06618H10.2V-0.000488281H3.79998V1.06618ZM12.8667 2.66618V12.2662H13.9333V2.66618H12.8667ZM9.90452 0.976578L13.1045 3.10991L13.6955 2.22245L10.4955 0.0891117L9.90452 0.976578ZM3.79998 12.7995C3.65854 12.7995 3.52288 12.7433 3.42286 12.6433C3.32284 12.5433 3.26665 12.4076 3.26665 12.2662H2.19998C2.19998 12.6905 2.36855 13.0975 2.66861 13.3976C2.96867 13.6976 3.37564 13.8662 3.79998 13.8662V12.7995ZM12.3333 13.8662C12.7577 13.8662 13.1646 13.6976 13.4647 13.3976C13.7647 13.0975 13.9333 12.6905 13.9333 12.2662H12.8667C12.8667 12.4076 12.8105 12.5433 12.7104 12.6433C12.6104 12.7433 12.4748 12.7995 12.3333 12.7995V13.8662ZM3.26665 1.59951C3.26665 1.45806 3.32284 1.32241 3.42286 1.22239C3.52288 1.12237 3.65854 1.06618 3.79998 1.06618V-0.000488281C3.37564 -0.000488281 2.96867 0.168083 2.66861 0.468141C2.36855 0.768199 2.19998 1.17517 2.19998 1.59951H3.26665ZM0.0666504 3.73285V14.3995H1.13332V3.73285H0.0666504ZM1.66665 15.9995H10.2V14.9328H1.66665V15.9995ZM1.66665 3.19951H2.73332V2.13285H1.66665V3.19951ZM11.8 14.3995V13.3328H10.7333V14.3995H11.8ZM10.2 15.9995C10.6243 15.9995 11.0313 15.8309 11.3314 15.5309C11.6314 15.2308 11.8 14.8239 11.8 14.3995H10.7333C10.7333 14.541 10.6771 14.6766 10.5771 14.7766C10.4771 14.8767 10.3414 14.9328 10.2 14.9328V15.9995ZM0.0666504 14.3995C0.0666504 14.8239 0.235221 15.2308 0.53528 15.5309C0.835338 15.8309 1.2423 15.9995 1.66665 15.9995V14.9328C1.5252 14.9328 1.38955 14.8767 1.28953 14.7766C1.18951 14.6766 1.13332 14.541 1.13332 14.3995H0.0666504ZM1.13332 3.73285C1.13332 3.5914 1.18951 3.45574 1.28953 3.35572C1.38955 3.2557 1.5252 3.19951 1.66665 3.19951V2.13285C1.2423 2.13285 0.835338 2.30142 0.53528 2.60147C0.235221 2.90153 0.0666504 3.3085 0.0666504 3.73285H1.13332Z" fill="#929292"/>
</svg>
