<svg width="16" height="16" viewBox="0 0 16 16" fill="none" xmlns="http://www.w3.org/2000/svg">
<path d="M4.42231 6.55531C4.37264 6.60485 4.33324 6.66371 4.30635 6.7285C4.27946 6.7933 4.26562 6.86276 4.26562 6.93291C4.26562 7.00306 4.27946 7.07252 4.30635 7.13732C4.33324 7.20211 4.37264 7.26097 4.42231 7.31051L8.84578 11.7329H11.1999C11.3414 11.7329 11.477 11.6767 11.577 11.5767C11.6771 11.4767 11.7332 11.341 11.7332 11.1996V8.84544L7.31085 4.42198C7.2613 4.37231 7.20245 4.3329 7.13765 4.30602C7.07286 4.27913 7.0034 4.26529 6.93325 4.26529C6.86309 4.26529 6.79363 4.27913 6.72884 4.30602C6.66404 4.3329 6.60519 4.37231 6.55565 4.42198L4.42231 6.55531Z" fill="#FC5D00"/>
</svg>
