<svg width="66" height="72" viewBox="0 0 66 72" fill="none" xmlns="http://www.w3.org/2000/svg">
<circle cx="36.0099" cy="29.3776" r="29.3781" fill="#E3FDEB"/>
<path fill-rule="evenodd" clip-rule="evenodd" d="M34.6488 33.7674L46.5768 21.8381L48.4129 23.673L34.6488 37.4371L26.3906 29.1789L28.2255 27.344L34.6488 33.7674Z" fill="#27A658"/>
<g clip-path="url(#clip0_1069_19093)">
<path d="M0.760742 48.5218C0.760742 47.7279 1.05636 46.9665 1.58255 46.4051C2.10875 45.8437 2.82243 45.5283 3.56658 45.5283H26.0133C26.7574 45.5283 27.4711 45.8437 27.9973 46.4051C28.5235 46.9665 28.8191 47.7279 28.8191 48.5218V50.9325L14.7899 59.3502L0.760742 50.9325V48.5218Z" fill="#000091"/>
<path d="M0.760742 53.2212V68.478C0.760742 69.2719 1.05636 70.0333 1.58255 70.5947C2.10875 71.1561 2.82243 71.4715 3.56658 71.4715H26.0133C26.7574 71.4715 27.4711 71.1561 27.9973 70.5947C28.5235 70.0333 28.8191 69.2719 28.8191 68.478V53.2212L14.7899 61.6409L0.760742 53.2192V53.2212Z" fill="#000091"/>
</g>
<defs>
<clipPath id="clip0_1069_19093">
<rect width="28.7609" height="27" fill="white" transform="translate(0.612305 45)"/>
</clipPath>
</defs>
</svg>
