<svg width="16" height="16" viewBox="0 0 16 16" fill="none" xmlns="http://www.w3.org/2000/svg">
<g clip-path="url(#clip0_895_5986)">
<path d="M14.2656 3.19951C13.4755 2.09903 12.3566 1.27763 11.07 0.853577C9.78336 0.42952 8.39535 0.424679 7.10578 0.839751C5.81621 1.25482 4.69162 2.06839 3.89389 3.16334C3.09617 4.25829 2.66648 5.57813 2.66667 6.93285V9.06618C2.66648 10.4209 3.09617 11.7407 3.89389 12.8357C4.69162 13.9306 5.81621 14.7442 7.10578 15.1593C8.39535 15.5743 9.78336 15.5695 11.07 15.1455C12.3566 14.7214 13.4755 13.9 14.2656 12.7995M0 5.86618H7.46667M0 10.1328H7.46667" stroke="#000091" stroke-width="1.06667"/>
</g>
<defs>
<clipPath id="clip0_895_5986">
<rect width="16" height="16" fill="white" transform="translate(0 -0.000488281)"/>
</clipPath>
</defs>
</svg>
