<svg width="16" height="16" viewBox="0 0 16 16" fill="none" xmlns="http://www.w3.org/2000/svg">
<g clip-path="url(#clip0_623_3298)">
<path d="M2.66689 6.93333V6.4H2.13356V6.93333H2.66689ZM6.93356 6.93333V6.4H6.40023V6.93333H6.93356ZM6.93356 11.2H6.40023V11.7333H6.93356V11.2ZM14.4002 3.73333H14.9336V3.51253L14.7778 3.35573L14.4002 3.73333ZM11.2002 0.533333L11.5778 0.155733L11.421 0H11.2002V0.533333ZM2.66689 7.46667H3.73356V6.4H2.66689V7.46667ZM3.20023 11.7333V9.06667H2.13356V11.7333H3.20023ZM3.20023 9.06667V6.93333H2.13356V9.06667H3.20023ZM3.73356 8.53333H2.66689V9.6H3.73356V8.53333ZM4.26689 8C4.26689 8.14145 4.2107 8.2771 4.11068 8.37712C4.01067 8.47714 3.87501 8.53333 3.73356 8.53333V9.6C4.15791 9.6 4.56487 9.43143 4.86493 9.13137C5.16499 8.83131 5.33356 8.42435 5.33356 8H4.26689ZM3.73356 7.46667C3.87501 7.46667 4.01067 7.52286 4.11068 7.62288C4.2107 7.7229 4.26689 7.85855 4.26689 8H5.33356C5.33356 7.57565 5.16499 7.16869 4.86493 6.86863C4.56487 6.56857 4.15791 6.4 3.73356 6.4V7.46667ZM6.40023 6.93333V11.2H7.4669V6.93333H6.40023ZM6.93356 11.7333H8.00023V10.6667H6.93356V11.7333ZM9.60023 10.1333V8H8.53356V10.1333H9.60023ZM8.00023 6.4H6.93356V7.46667H8.00023V6.4ZM9.60023 8C9.60023 7.57565 9.43166 7.16869 9.1316 6.86863C8.83154 6.56857 8.42457 6.4 8.00023 6.4V7.46667C8.14168 7.46667 8.27733 7.52286 8.37735 7.62288C8.47737 7.7229 8.53356 7.85855 8.53356 8H9.60023ZM8.00023 11.7333C8.42457 11.7333 8.83154 11.5648 9.1316 11.2647C9.43166 10.9646 9.60023 10.5577 9.60023 10.1333H8.53356C8.53356 10.2748 8.47737 10.4104 8.37735 10.5105C8.27733 10.6105 8.14168 10.6667 8.00023 10.6667V11.7333ZM10.6669 6.4V11.7333H11.7336V6.4H10.6669ZM11.2002 7.46667H13.8669V6.4H11.2002V7.46667ZM11.2002 9.6H12.8002V8.53333H11.2002V9.6ZM2.13356 5.33333V1.6H1.06689V5.33333H2.13356ZM13.8669 3.73333V5.33333H14.9336V3.73333H13.8669ZM2.66689 1.06667H11.2002V0H2.66689V1.06667ZM10.8226 0.910933L14.0226 4.11093L14.7778 3.35573L11.5778 0.155733L10.8226 0.910933ZM2.13356 1.6C2.13356 1.45855 2.18975 1.3229 2.28977 1.22288C2.38979 1.12286 2.52545 1.06667 2.66689 1.06667V0C2.24255 0 1.83558 0.168571 1.53552 0.468629C1.23547 0.768687 1.06689 1.17565 1.06689 1.6H2.13356ZM1.06689 12.8V14.4H2.13356V12.8H1.06689ZM2.66689 16H13.3336V14.9333H2.66689V16ZM14.9336 14.4V12.8H13.8669V14.4H14.9336ZM13.3336 16C13.7579 16 14.1649 15.8314 14.4649 15.5314C14.765 15.2313 14.9336 14.8243 14.9336 14.4H13.8669C13.8669 14.5414 13.8107 14.6771 13.7107 14.7771C13.6107 14.8771 13.475 14.9333 13.3336 14.9333V16ZM1.06689 14.4C1.06689 14.8243 1.23547 15.2313 1.53552 15.5314C1.83558 15.8314 2.24255 16 2.66689 16V14.9333C2.52545 14.9333 2.38979 14.8771 2.28977 14.7771C2.18975 14.6771 2.13356 14.5414 2.13356 14.4H1.06689Z" fill="#000091"/>
</g>
<defs>
<clipPath id="clip0_623_3298">
<rect width="16" height="16" fill="white"/>
</clipPath>
</defs>
</svg>
