<svg width="16" height="16" viewBox="0 0 16 16" fill="none" xmlns="http://www.w3.org/2000/svg">
<g clip-path="url(#clip0_549_17162)">
<path d="M14.4002 3.73333H14.9336V3.51253L14.7778 3.35573L14.4002 3.73333ZM11.2002 0.533333L11.5778 0.155733L11.421 0H11.2002V0.533333ZM6.93356 6.93333V6.4H6.40023V6.93333H6.93356ZM6.93356 9.06667H6.40023V9.6H6.93356V9.06667ZM9.06689 9.06667H9.60023V8.53333H9.06689V9.06667ZM9.06689 11.2V11.7333H9.60023V11.2H9.06689ZM11.2002 10.1333H10.6669V10.3541L10.8226 10.5109L11.2002 10.1333ZM12.2669 11.2L11.8893 11.5776L12.2669 11.9541L12.6445 11.5776L12.2669 11.2ZM13.3336 10.1333L13.7112 10.5109L13.8669 10.3541V10.1333H13.3336ZM2.66689 6.93333V6.4H2.13356V6.93333H2.66689ZM2.66689 11.2H2.13356V11.7333H2.66689V11.2ZM2.13356 5.33333V1.6H1.06689V5.33333H2.13356ZM13.8669 3.73333V5.33333H14.9336V3.73333H13.8669ZM2.66689 1.06667H11.2002V0H2.66689V1.06667ZM10.8226 0.910933L14.0226 4.11093L14.7778 3.35573L11.5778 0.155733L10.8226 0.910933ZM2.13356 1.6C2.13356 1.45855 2.18975 1.3229 2.28977 1.22288C2.38979 1.12286 2.52545 1.06667 2.66689 1.06667V0C2.24255 0 1.83558 0.168571 1.53552 0.468629C1.23547 0.768687 1.06689 1.17565 1.06689 1.6H2.13356ZM1.06689 12.8V14.4H2.13356V12.8H1.06689ZM2.66689 16H13.3336V14.9333H2.66689V16ZM14.9336 14.4V12.8H13.8669V14.4H14.9336ZM13.3336 16C13.7579 16 14.1649 15.8314 14.4649 15.5314C14.765 15.2313 14.9336 14.8243 14.9336 14.4H13.8669C13.8669 14.5414 13.8107 14.6771 13.7107 14.7771C13.6107 14.8771 13.475 14.9333 13.3336 14.9333V16ZM1.06689 14.4C1.06689 14.8243 1.23547 15.2313 1.53552 15.5314C1.83558 15.8314 2.24255 16 2.66689 16V14.9333C2.52545 14.9333 2.38979 14.8771 2.28977 14.7771C2.18975 14.6771 2.13356 14.5414 2.13356 14.4H1.06689ZM9.60023 6.4H6.93356V7.46667H9.60023V6.4ZM6.40023 6.93333V9.06667H7.4669V6.93333H6.40023ZM6.93356 9.6H9.06689V8.53333H6.93356V9.6ZM8.53356 9.06667V11.2H9.60023V9.06667H8.53356ZM9.06689 10.6667H6.40023V11.7333H9.06689V10.6667ZM10.6669 6.4V10.1333H11.7336V6.4H10.6669ZM10.8226 10.5109L11.8893 11.5776L12.6445 10.8224L11.5778 9.75573L10.8226 10.5109ZM12.6445 11.5776L13.7112 10.5109L12.956 9.75573L11.8893 10.8224L12.6445 11.5776ZM13.8669 10.1333V6.4H12.8002V10.1333H13.8669ZM5.33356 6.4H2.66689V7.46667H5.33356V6.4ZM2.13356 6.93333V11.2H3.20023V6.93333H2.13356ZM2.66689 11.7333H5.33356V10.6667H2.66689V11.7333Z" fill="#000091"/>
</g>
<defs>
<clipPath id="clip0_549_17162">
<rect width="16" height="16" fill="white"/>
</clipPath>
</defs>
</svg>
