<svg width="16" height="16" viewBox="0 0 16 16" fill="none" xmlns="http://www.w3.org/2000/svg">
<g clip-path="url(#clip0_267_1816)">
<path fill-rule="evenodd" clip-rule="evenodd" d="M7.33332 0.667236H8.66666V2.66724H7.33332V0.667236ZM7.33332 13.3339H8.66666V15.3339H7.33332V13.3339ZM2.34332 3.28657L3.28599 2.3439L4.69999 3.7579L3.75732 4.70057L2.34332 3.28724V3.28657ZM11.3 12.2432L12.2427 11.3006L13.6567 12.7146L12.714 13.6572L11.3 12.2432ZM12.714 2.34324L13.6567 3.28657L12.2427 4.70057L11.3 3.7579L12.714 2.3439V2.34324ZM3.75732 11.3006L4.69999 12.2432L3.28599 13.6572L2.34332 12.7146L3.75732 11.3006ZM15.3333 7.3339V8.66724H13.3333V7.3339H15.3333ZM7.99999 4.00057C10.2091 4.00057 12 5.79143 12 8.00057C12 10.2097 10.2091 12.0006 7.99999 12.0006C5.79085 12.0006 3.99999 10.2097 3.99999 8.00057C3.99999 5.79143 5.79085 4.00057 7.99999 4.00057ZM7.99999 5.3339C6.52723 5.3339 5.33332 6.52781 5.33332 8.00057C5.33332 9.43001 6.45803 10.5968 7.87079 10.6642L7.99999 10.6672V5.3339ZM2.66666 7.3339V8.66724H0.666656V7.3339H2.66666Z" fill="#666666"/>
</g>
<defs>
<clipPath id="clip0_267_1816">
<rect width="16" height="16" fill="white" transform="translate(0 0.000610352)"/>
</clipPath>
</defs>
</svg>
