<svg width="16" height="16" viewBox="0 0 16 16" fill="none" xmlns="http://www.w3.org/2000/svg">
<g clip-path="url(#clip0_559_5361)">
<path d="M2.66667 13.2251L3.06133 12.8667L3.05493 12.8592L3.04747 12.8518L2.66667 13.2251ZM3.73333 14.3995V14.9328H4.26667V14.3995H3.73333ZM7.46667 15.447L7.48587 14.9136L7.42933 15.9803L7.46667 15.447ZM8 7.99951H7.46667C7.46654 8.0696 7.48023 8.13902 7.50695 8.20381C7.53368 8.2686 7.57291 8.32749 7.6224 8.37711L8 7.99951ZM14.9333 7.99951C14.9333 8.91001 14.754 9.81159 14.4056 10.6528C14.0571 11.494 13.5464 12.2583 12.9026 12.9021C12.2588 13.5459 11.4945 14.0566 10.6533 14.4051C9.81208 14.7535 8.9105 14.9328 8 14.9328V15.9995C10.1217 15.9995 12.1566 15.1567 13.6569 13.6564C15.1571 12.1561 16 10.1212 16 7.99951H14.9333ZM8 1.06618C8.9105 1.06618 9.81208 1.24551 10.6533 1.59395C11.4945 1.94238 12.2588 2.45309 12.9026 3.0969C13.5464 3.74072 14.0571 4.50505 14.4056 5.34624C14.754 6.18743 14.9333 7.08901 14.9333 7.99951H16C16 5.87778 15.1571 3.84295 13.6569 2.34266C12.1566 0.842366 10.1217 -0.000488281 8 -0.000488281V1.06618ZM8 -0.000488281C5.87827 -0.000488281 3.84344 0.842366 2.34315 2.34266C0.842855 3.84295 0 5.87778 0 7.99951H1.06667C1.06667 6.16068 1.79714 4.39716 3.09739 3.0969C4.39765 1.79665 6.16117 1.06618 8 1.06618V-0.000488281ZM3.04747 12.8518C1.77553 11.5573 1.06401 9.81432 1.06667 7.99951H0C0 10.1787 0.872533 12.1563 2.28587 13.5984L3.04747 12.8518ZM2.272 13.5835L3.33867 14.7579L4.128 14.0411L3.06133 12.8667L2.272 13.5835ZM8 14.9328C7.83452 14.933 7.66908 14.9273 7.504 14.9158L7.42933 15.9792C7.61813 15.9931 7.808 15.9995 8 15.9995V14.9328ZM8.0192 14.9328L7.48587 14.9147L7.44747 15.9814L7.9808 15.9995L8.0192 14.9328ZM7.46667 3.19951V7.99951H8.53333V3.19951H7.46667ZM7.6224 8.37711L10.8224 11.5771L11.5776 10.8219L8.3776 7.62191L7.6224 8.37711ZM0 14.9328H3.73333V13.8662H0V14.9328ZM4.26667 14.3995V10.6662H3.2V14.3995H4.26667Z" fill="#000091"/>
</g>
<defs>
<clipPath id="clip0_559_5361">
<rect width="16" height="16" fill="white" transform="translate(0 -0.000488281)"/>
</clipPath>
</defs>
</svg>
