<svg width="65" height="56" viewBox="0 0 65 56" fill="none" xmlns="http://www.w3.org/2000/svg">
<path d="M0.824219 14.8361H3.13193C4.7803 14.8361 5.76934 15.6603 5.76934 16.979C5.76934 17.8032 5.2748 18.4625 4.61546 18.9571L6.92319 22.2538H5.10997L3.13193 19.2867H2.30774V22.2538H0.824219V14.8361ZM2.30774 15.9899V17.8032H3.13193C3.79128 17.8032 4.12096 17.4735 4.12096 16.8141C4.12096 16.3196 3.79128 15.9899 3.13193 15.9899H2.30774Z" fill="black"/>
<path d="M7.74731 14.8362H12.0331V16.1549H9.23084V17.8032H11.5386V19.1219H9.23084V20.9351H12.0331V22.2539H7.74731V14.8362ZM9.23084 14.1768L10.3847 12.6933H11.8682L10.5495 14.1768H9.23084Z" fill="black"/>
<path d="M13.6816 14.8361H16.1542C17.8026 14.8361 18.7916 15.6603 18.7916 16.979C18.7916 18.2977 17.8026 19.1218 16.1542 19.1218H15.1652V22.089H13.6816V14.8361ZM15.33 15.9899V17.8032H16.319C16.9784 17.8032 17.3081 17.4735 17.3081 16.8141C17.3081 16.3196 16.9784 15.9899 16.319 15.9899H15.33Z" fill="black"/>
<path d="M24.3962 14.8361H25.8797V19.2867C25.8797 21.2647 24.7258 22.4186 22.9126 22.4186C21.0994 22.4186 19.9456 21.2647 19.9456 19.2867V14.8361H21.4291V19.4515C21.4291 20.4406 21.9236 21.0999 22.9126 21.0999C23.9017 21.0999 24.3962 20.4406 24.3962 19.4515V14.8361Z" fill="black"/>
<path d="M27.6927 14.8361H29.8355C31.3191 14.8361 32.3081 15.6603 32.3081 16.8141C32.3081 17.4735 31.9784 17.968 31.4839 18.2977C32.3081 18.6273 32.6378 19.2867 32.6378 20.1109C32.6378 21.4296 31.6488 22.2538 29.8355 22.2538H27.5278V14.8361H27.6927ZM29.1762 15.9899V17.6383H29.8355C30.3301 17.6383 30.6597 17.3086 30.6597 16.8141C30.6597 16.3196 30.3301 15.9899 29.8355 15.9899H29.1762ZM29.1762 18.9571V20.9351H30.0004C30.6597 20.9351 31.1542 20.6054 31.1542 19.946C31.1542 19.2867 30.6597 18.9571 30.0004 18.9571H29.1762Z" fill="black"/>
<path d="M34.2864 14.8361H35.7699V20.7702H38.5722V22.089H34.2864V14.8361Z" fill="black"/>
<path d="M39.8906 14.8361H41.3742V22.2538H39.8906V14.8361Z" fill="black"/>
<path d="M51.0996 22.584C51.2644 22.584 51.4292 22.584 51.5941 22.4191V23.7379C51.4292 23.9027 51.0996 23.9027 50.7699 23.9027C49.9457 23.9027 49.1215 23.573 48.4622 22.9137L47.638 22.0895C47.3083 22.2543 46.9786 22.2543 46.649 22.2543C44.3412 22.2543 42.6929 20.4411 42.6929 18.2982C42.6929 16.1553 44.3412 14.3421 46.649 14.3421C48.9567 14.3421 50.6051 16.1553 50.6051 18.2982C50.6051 19.452 50.1105 20.606 49.1215 21.4301L49.616 21.9246C50.2754 22.4191 50.7699 22.584 51.0996 22.584ZM49.1215 18.463C49.1215 16.9795 48.1325 15.9905 46.8138 15.9905C45.4951 15.9905 44.5061 17.1443 44.5061 18.463C44.5061 19.9466 45.4951 20.9356 46.8138 20.9356C48.1325 20.9356 49.1215 19.9466 49.1215 18.463Z" fill="black"/>
<path d="M56.3747 14.8361H57.8582V19.2867C57.8582 21.2647 56.7043 22.4186 54.8911 22.4186C53.0779 22.4186 51.9241 21.2647 51.9241 19.2867V14.8361H53.4076V19.4515C53.4076 20.4406 53.9021 21.0999 54.8911 21.0999C55.8801 21.0999 56.3747 20.4406 56.3747 19.4515V14.8361Z" fill="black"/>
<path d="M59.8362 14.8361H64.122V16.1548H61.3197V17.8032H63.6275V19.1218H61.3197V20.9351H64.122V22.2538H59.8362V14.8361Z" fill="black"/>
<path d="M0.824219 25.3864H5.10997V26.705H2.30774V28.3534H4.61546V29.6721H2.30774V32.8041H0.824219V25.3864Z" fill="black"/>
<path d="M6.42871 25.3864H8.73642C10.3848 25.3864 11.3738 26.2105 11.3738 27.5292C11.3738 28.3534 10.8793 29.0128 10.22 29.5073L12.5277 32.8041H10.7145L8.73642 29.8369H7.91224V32.8041H6.42871V25.3864ZM7.91224 26.705V28.5183H8.73642C9.39577 28.5183 9.72546 28.1886 9.72546 27.5292C9.72546 27.0347 9.39577 26.705 8.73642 26.705H7.91224Z" fill="black"/>
<path d="M15.4949 25.3864H17.4729L20.2751 32.8041H18.6268L17.9674 30.826H15.0003L14.341 32.8041H12.6926L15.4949 25.3864ZM17.4729 29.5073L16.4839 26.705L15.4949 29.5073H17.4729Z" fill="black"/>
<path d="M21.429 25.3864H23.407L26.7037 30.6611V25.3864H28.1873V32.8041H26.2092L22.9125 27.5292V32.8041H21.429V25.3864Z" fill="black"/>
<path d="M35.4402 30.4961L36.5941 31.3203C36.0995 32.1445 35.1105 32.639 34.1215 32.8038L33.1325 34.2873H31.8138L32.8028 32.8038C30.8247 32.4741 29.6709 30.8257 29.6709 29.0125C29.6709 26.8696 31.3193 25.0564 33.627 25.0564C34.9457 25.0564 36.0995 25.7157 36.7589 26.5399L35.605 27.529C35.1105 26.8696 34.4512 26.5399 33.627 26.5399C32.3083 26.5399 31.3193 27.6938 31.3193 29.0125C31.3193 30.3312 32.3083 31.4851 33.627 31.4851C34.2863 31.6499 34.9457 31.1554 35.4402 30.4961Z" fill="black"/>
<path d="M39.7258 25.3864H41.7039L44.5061 32.8041H42.8577L42.1984 30.826H39.2313L38.572 32.8041H36.9236L39.7258 25.3864ZM41.7039 29.5073L40.7148 26.705L39.7258 29.5073H41.7039Z" fill="black"/>
<path d="M45.6602 25.3864H47.1437V32.8041H45.6602V25.3864Z" fill="black"/>
<path d="M49.616 30.8255C50.1105 31.32 50.605 31.6497 51.2644 31.6497C51.9237 31.6497 52.2534 31.32 52.2534 30.8255C52.2534 29.5068 48.9567 29.8365 48.9567 27.3639C48.9567 26.21 49.9457 25.221 51.2644 25.221C52.4182 25.221 53.2424 25.7155 53.9018 26.5397L52.7479 27.5288C52.2534 27.0342 51.7589 26.5397 51.2644 26.5397C50.7699 26.5397 50.4402 26.8694 50.4402 27.3639C50.4402 28.6826 53.7369 28.3529 53.7369 30.8255C53.7369 32.1442 52.5831 32.9684 51.2644 32.9684C49.9457 32.9684 49.1215 32.4739 48.4622 31.8146L49.616 30.8255Z" fill="black"/>
<path d="M55.2207 25.3864H59.5065V26.705H56.7042V28.3534H59.0119V29.6721H56.7042V31.4853H59.5065V32.8041H55.2207V25.3864Z" fill="black"/>
<path d="M24.7261 53.0775C24.8909 53.0775 25.0558 53.2424 25.0558 53.5721L24.0667 53.7369C24.2316 53.4072 24.5612 53.0775 24.7261 53.0775ZM25.2206 54.5611H25.0558C24.8909 54.8907 24.5612 55.0556 24.3964 55.0556C24.0667 55.0556 24.0667 54.8907 24.0667 54.5611C24.0667 54.3962 24.0667 54.2314 24.0667 54.2314L25.5503 53.7369C25.8799 53.0775 25.5503 52.7479 25.0558 52.7479C24.3964 52.7479 23.5722 53.9017 23.5722 54.8908C23.5722 55.3853 23.737 55.5501 24.0667 55.5501C24.5612 55.7149 24.8909 55.2204 25.2206 54.5611ZM25.0558 52.4182L26.0448 51.4292V51.2643H25.5503L25.0558 52.4182ZM21.759 53.0775H22.2535L21.4293 55.2205C21.4293 55.3853 21.4293 55.5501 21.5942 55.5501C22.0887 55.5501 22.748 55.0556 23.0777 54.5611H22.9129C22.748 54.7259 22.2535 55.0556 21.9238 55.0556L22.5832 53.0775H23.2425L23.4074 52.7479H22.9129L23.2425 51.9237H22.9129L22.4183 52.7479L21.759 52.9127V53.0775ZM21.0996 53.0775C21.0996 52.9127 21.0997 52.7479 20.9348 52.7479C20.4403 52.7479 19.9458 53.0775 19.781 53.7369H19.9458C20.1106 53.572 20.2755 53.2424 20.6052 53.2424L19.781 55.3853C19.781 55.5501 19.7809 55.715 19.9458 55.715C20.2755 55.715 20.77 55.3853 21.0996 54.7259H20.9348C20.77 54.8908 20.6051 55.2205 20.2755 55.2205L21.0996 53.0775ZM21.2645 51.9237C21.4293 51.9237 21.5942 51.7588 21.5942 51.594C21.5942 51.4292 21.4293 51.2643 21.2645 51.2643C21.0997 51.2643 20.9348 51.4292 20.9348 51.594C20.9348 51.7588 21.0997 51.9237 21.2645 51.9237ZM16.4842 55.2205C16.3194 55.3853 16.4842 55.5501 16.649 55.5501C16.8139 55.5501 16.8139 55.5501 16.9787 55.3853L17.4732 53.9017C17.8029 53.5721 18.2974 53.2424 18.4623 53.2424C18.6271 53.2424 18.6271 53.4072 18.4623 53.5721L17.6381 55.2205C17.4732 55.3853 17.6381 55.5501 17.8029 55.5501C18.2974 55.5501 18.7919 55.2204 18.9568 54.5611H18.7919C18.6271 54.7259 18.4623 55.0556 18.1326 55.0556L18.9568 53.5721C19.1216 53.4072 19.1216 53.2424 19.1216 53.0775C19.1216 52.7479 18.9568 52.7479 18.7919 52.7479C18.4623 52.7479 17.9677 53.2424 17.6381 53.7369V53.4072C17.6381 53.0776 17.4732 52.9127 17.3084 52.9127C17.1436 52.9127 16.9787 53.0775 16.8139 53.2424C17.1436 53.2424 17.1435 53.5721 16.9787 54.0666L16.4842 55.2205ZM16.4842 53.4072C16.6491 53.0776 16.4842 52.7479 16.3194 52.7479C15.9897 52.7479 15.9897 52.9127 15.66 53.7369V53.4072C15.66 53.0776 15.4952 52.9127 15.3303 52.9127C15.0007 52.9127 14.671 53.4072 14.5062 53.9017H14.671C14.8358 53.7369 15.0007 53.5721 15.0007 53.5721C15.1655 53.5721 15.1655 53.7369 15.0007 54.2314L14.3413 55.5501C14.1765 55.7149 14.3413 55.8798 14.5062 55.8798C14.671 55.8798 14.671 55.8798 14.8358 55.715L15.3303 54.2314C15.4952 54.0666 15.66 53.9017 15.8249 53.7369H16.4842V53.4072ZM13.1875 53.0775C13.3523 53.0775 13.5171 53.2424 13.5171 53.5721L12.5281 53.7369C12.6929 53.4072 12.8578 53.0775 13.1875 53.0775ZM13.682 54.5611H13.5171C13.3523 54.8907 13.0226 55.0556 12.8578 55.0556C12.5281 55.0556 12.5281 54.8907 12.5281 54.5611C12.5281 54.3962 12.5281 54.2314 12.5281 54.2314L14.0117 53.7369C14.3413 53.0775 14.0117 52.7479 13.5171 52.7479C12.8578 52.7479 12.0336 53.9017 12.0336 54.8908C12.0336 55.3853 12.1984 55.5501 12.5281 55.5501C12.8578 55.7149 13.3523 55.2204 13.682 54.5611ZM10.0556 53.0775H10.5501L9.72588 55.2205C9.72588 55.3853 9.72589 55.5501 9.89073 55.5501C10.3852 55.5501 11.0446 55.0556 11.3743 54.5611C11.2094 54.7259 10.7149 55.0556 10.3852 55.0556L11.0446 53.0775H11.7039L11.8688 52.7479H11.2094L11.5391 51.9237H11.2094L10.7149 52.7479L10.0556 52.9127V53.0775ZM7.41817 54.8908C7.41817 54.2314 8.07751 53.2424 8.57203 53.2424C8.73686 53.2424 8.73686 53.2424 8.9017 53.2424L8.40718 54.3963C8.0775 54.7259 7.74783 55.0556 7.58299 55.0556C7.41815 55.0556 7.41817 55.0556 7.41817 54.8908ZM9.72588 52.583H9.56103L9.23136 52.9127C8.0775 52.9127 6.92365 54.2314 6.92365 55.2205C6.92365 55.5501 7.0885 55.715 7.41817 55.715C7.74784 55.715 8.0775 55.2204 8.40718 54.7259V54.8908C8.40718 55.3853 8.57201 55.715 8.73685 55.715C9.06652 55.715 9.3962 55.2204 9.56103 54.7259H9.39621C9.23137 54.8908 9.06654 55.0556 9.06654 55.0556C8.90171 55.0556 8.90171 54.8908 9.06654 54.3963L9.72588 52.583ZM7.08848 53.4072C7.25331 53.0776 7.08849 52.7479 6.92365 52.7479C6.59398 52.7479 6.59396 52.9127 6.26429 53.7369V53.4072C6.26429 53.0776 6.09946 52.9127 5.93462 52.9127C5.60495 52.9127 5.27527 53.4072 5.11043 53.9017H5.27528C5.44012 53.7369 5.60495 53.5721 5.60495 53.5721C5.76979 53.5721 5.76979 53.7369 5.60495 54.2314L4.94561 55.5501C4.78077 55.7149 4.9456 55.8798 5.11043 55.8798C5.27527 55.8798 5.27527 55.8798 5.4401 55.715L5.93462 54.2314C6.09946 54.0666 6.2643 53.9017 6.42914 53.7369H7.08848V53.4072ZM2.96754 55.5501V55.3853C2.30819 55.2204 2.14338 55.2205 2.47305 54.3963L2.80272 53.5721H3.62691C3.95658 53.5721 3.95658 53.7369 3.95658 54.0666H4.12142L4.61592 52.7479H4.45109C4.28626 53.0776 4.1214 53.2424 3.79173 53.2424H2.96754L3.46206 52.0885C3.6269 51.7588 3.62691 51.594 4.12142 51.594H4.45109C4.94561 51.594 4.94561 51.7588 4.94561 52.2533H5.11043L5.27528 51.4292H2.30821V51.594C2.96755 51.7588 2.96755 51.7589 2.63787 52.583L1.97854 54.3963C1.64886 55.0556 1.64885 55.2204 0.989502 55.3853V55.5501H2.96754Z" fill="black"/>
<path d="M17.473 46.3192C17.6378 46.3192 17.8027 46.4841 17.8027 46.8138L16.8137 46.9786C16.9785 46.6489 17.3082 46.3192 17.473 46.3192ZM18.1324 47.8028H17.9675C17.8027 48.1325 17.473 48.2973 17.3082 48.2973C16.9785 48.2973 16.9785 48.1325 16.9785 47.8028C16.9785 47.638 16.9785 47.4731 16.9785 47.4731L18.462 46.9786C18.7917 46.3193 18.462 45.9896 17.9675 45.9896C17.3082 45.9896 16.484 47.1434 16.484 48.1324C16.484 48.627 16.6488 48.7918 16.9785 48.7918C17.3082 48.9566 17.6379 48.4621 18.1324 47.8028ZM17.8027 45.6599L18.7917 44.6708V44.506H18.2972L17.8027 45.6599ZM14.5059 46.3192H15.0005L14.1763 48.4621C14.1763 48.627 14.1763 48.7918 14.3411 48.7918C14.8356 48.7918 15.495 48.2973 15.8246 47.8028H15.6598C15.495 47.9676 15.0005 48.2973 14.6708 48.2973L15.3301 46.3192H15.9895L16.1543 45.9896H15.495L15.8246 45.1654H15.495L15.0005 45.9896L14.3411 46.1544V46.3192H14.5059ZM13.8466 46.3192C13.8466 46.1544 13.8466 45.9896 13.6817 45.9896C13.1872 45.9896 12.6927 46.3193 12.5279 46.9786H12.6927C12.8576 46.8138 13.0224 46.4841 13.3521 46.4841L12.5279 48.627C12.5279 48.7918 12.5279 48.9566 12.6927 48.9566C13.0224 48.9566 13.5169 48.6269 13.8466 47.9676H13.6817C13.5169 48.1324 13.3521 48.4621 13.0224 48.4621L13.8466 46.3192ZM14.0114 45.1654C14.1763 45.1654 14.3411 45.0005 14.3411 44.8357C14.3411 44.6708 14.1763 44.506 14.0114 44.506C13.8466 44.506 13.6817 44.6708 13.6817 44.8357C13.6817 45.0005 13.8466 45.1654 14.0114 45.1654ZM11.2092 48.4621L12.6927 44.506L11.7037 44.6708V44.8357L11.8686 45.0005C12.0334 45.1654 12.0334 45.3302 11.8686 45.6599L10.7147 48.7918C10.5499 48.9566 10.7147 49.1215 10.8795 49.1215C11.374 49.1215 11.7037 48.7918 12.0334 48.1324H11.8686C11.7037 48.1324 11.374 48.4621 11.2092 48.4621ZM8.24214 48.1324C8.24214 47.4731 8.90148 46.4841 9.396 46.4841C9.56083 46.4841 9.56083 46.4841 9.72566 46.4841L9.23115 47.6379C8.90147 47.9676 8.5718 48.2973 8.40696 48.2973C8.40696 48.2973 8.24214 48.2973 8.24214 48.1324ZM10.5499 45.8247H10.385L10.0553 46.1544C8.90147 46.1544 7.74762 47.4731 7.74762 48.4621C7.74762 48.7918 7.91246 48.9566 8.24214 48.9566C8.57181 48.9566 8.90147 48.4621 9.23115 47.9676V48.1324C9.23115 48.627 9.39598 48.9566 9.56082 48.9566C9.89049 48.9566 10.2202 48.4621 10.385 47.9676H10.2202C10.0553 48.1324 9.89051 48.2973 9.89051 48.2973C9.72567 48.2973 9.72567 48.1325 9.89051 47.6379L10.5499 45.8247ZM5.11022 49.4512C5.11022 49.1215 5.43991 48.9566 5.76958 48.7918C5.93442 48.7918 6.09925 48.9566 6.42892 48.9566C6.75859 49.1215 6.92344 49.1215 6.92344 49.2863C6.92344 49.616 6.42891 49.7808 5.9344 49.7808C5.27505 49.7808 5.11022 49.7808 5.11022 49.4512ZM6.09925 47.6379C5.93441 47.6379 5.76958 47.4731 5.76958 47.3083C5.76958 46.8137 6.09925 46.1544 6.42892 46.1544C6.59376 46.1544 6.75859 46.3192 6.75859 46.4841C6.75859 46.9786 6.59376 47.6379 6.09925 47.6379ZM7.25311 49.1215C7.25311 48.7918 6.92343 48.627 6.42892 48.4621C5.93441 48.2973 5.76958 48.2973 5.76958 48.1324C5.76958 47.9676 5.93441 47.8028 6.09925 47.8028C6.7586 47.8028 7.25311 47.1434 7.25311 46.6489C7.25311 46.4841 7.25311 46.4841 7.25311 46.3192H7.91244L8.07729 45.9896H7.08826C6.92342 45.9896 6.75859 45.8247 6.75859 45.8247C5.9344 45.8247 5.43989 46.4841 5.43989 46.9786C5.43989 47.3083 5.76957 47.6379 5.9344 47.6379C5.60473 47.8028 5.43989 47.9676 5.43989 48.1324C5.43989 48.2973 5.4399 48.2973 5.60473 48.4621C4.78055 48.627 4.45088 48.9567 4.45088 49.2863C4.45088 49.616 4.94538 49.7808 5.60473 49.7808C6.42892 50.1105 7.25311 49.616 7.25311 49.1215ZM3.62669 46.8138C3.95637 46.8138 3.95636 46.9786 3.95636 47.3083H4.12121L4.6157 45.9896H4.45088C4.28604 46.3192 4.12119 46.4841 3.79151 46.4841H2.96733L3.29702 45.3302C3.46186 45.0006 3.46185 44.8357 3.95636 44.8357H4.28603C4.78054 44.8357 4.78055 45.0005 4.78055 45.495H4.94539L5.11022 44.6708H2.14314V44.8357C2.80249 45.0005 2.80251 45.0005 2.47284 45.8247L1.81347 47.6379C1.4838 48.2973 1.48381 48.4621 0.824463 48.627V48.7918H4.12121L4.78055 47.8028H4.6157C4.28603 48.1325 3.79152 48.4621 3.13217 48.4621C2.30799 48.4621 2.30798 48.4621 2.63766 47.6379L2.96733 46.8138H3.62669ZM3.95636 44.6708L4.94539 44.0115V43.8466H4.28603L3.62669 44.6708H3.95636Z" fill="black"/>
<path d="M17.1433 39.5606C17.3082 39.5606 17.473 39.7254 17.473 40.0551L16.484 40.2199C16.6488 39.8903 16.9785 39.5606 17.1433 39.5606ZM17.6379 41.0441H17.473C17.3082 41.3738 16.9785 41.5386 16.8137 41.5386C16.484 41.5386 16.484 41.3738 16.484 41.0441C16.484 40.8793 16.484 40.7144 16.484 40.7144L17.9675 40.2199C18.2972 39.5606 17.9675 39.2309 17.473 39.2309C16.8137 39.2309 15.9895 40.3847 15.9895 41.3738C15.9895 41.8683 16.1543 42.0332 16.484 42.0332C16.9785 42.198 17.3082 41.7035 17.6379 41.0441ZM17.473 38.9012L18.462 37.9122V37.7474H17.9675L17.473 38.9012ZM14.3411 39.5606H14.6708L13.8466 41.7035C13.8466 41.8683 13.8466 42.0332 14.0114 42.0332C14.506 42.0332 15.1653 41.5386 15.495 41.0441H15.3301C15.1653 41.209 14.6708 41.5386 14.3411 41.5386L15.0004 39.5606H15.6598L15.8246 39.2309H15.1653L15.495 38.4067H15.1653L14.6708 39.2309L14.1763 39.3957V39.5606H14.3411ZM13.8466 39.8902C14.0114 39.5606 13.8466 39.2309 13.6817 39.2309C13.3521 39.2309 13.3521 39.3957 13.0224 40.2199V39.8902C13.0224 39.5606 12.8576 39.3957 12.6927 39.3957C12.3631 39.3957 12.0334 39.8903 11.8686 40.3848H12.0334C12.1982 40.2199 12.3631 40.0551 12.3631 40.0551C12.5279 40.0551 12.5279 40.2199 12.3631 40.7144L11.7037 42.0332C11.5389 42.198 11.7037 42.3628 11.8686 42.3628C12.0334 42.3628 12.0334 42.3628 12.1982 42.198L12.6927 40.7144C12.8576 40.5496 13.0224 40.3848 13.1873 40.2199H13.8466V39.8902ZM10.5498 39.5606C10.7147 39.5606 10.8795 39.7254 10.8795 40.0551L9.89051 40.2199C10.0553 39.8903 10.385 39.5606 10.5498 39.5606ZM11.0444 41.0441H10.8795C10.7147 41.3738 10.385 41.5386 10.2202 41.5386C9.89051 41.5386 9.89051 41.3738 9.89051 41.0441C9.89051 40.8793 9.89051 40.7144 9.89051 40.7144L11.374 40.2199C11.7037 39.5606 11.374 39.2309 10.8795 39.2309C10.2202 39.2309 9.39599 40.3847 9.39599 41.3738C9.39599 41.8683 9.56084 42.0332 9.89051 42.0332C10.385 42.198 10.7147 41.7035 11.0444 41.0441ZM7.41795 41.7035C7.25311 41.7035 7.08826 41.5386 7.08826 41.3738C7.08826 41.3738 7.08827 41.2089 7.2531 40.8793L7.41795 40.2199C7.74763 39.8903 8.0773 39.5606 8.24214 39.5606C8.40698 39.5606 8.40696 39.7254 8.40696 39.8902C8.5718 40.7144 8.0773 41.7035 7.41795 41.7035ZM9.06632 39.8902C9.06632 39.3957 8.90148 39.2309 8.57181 39.2309C8.24213 39.2309 7.91246 39.5606 7.41795 40.0551L8.24214 37.7474L7.2531 37.9122V38.077L7.41795 38.2419C7.58279 38.4067 7.58279 38.5715 7.41795 38.9012L6.42892 41.3738C6.42892 41.5386 6.26407 41.7035 6.26407 41.8683C6.26407 42.198 6.59376 42.3628 6.92344 42.3628C7.91246 42.198 9.06632 40.8793 9.06632 39.8902ZM6.26407 39.5606C6.26407 39.3957 6.26409 39.2309 6.09925 39.2309C5.60474 39.2309 5.11023 39.5606 4.94539 40.2199H5.11022C5.27505 40.0551 5.43991 39.7254 5.76958 39.7254L4.94539 41.8683C4.94539 42.0331 4.94538 42.198 5.11022 42.198C5.43989 42.198 5.9344 41.8683 6.26407 41.209H6.09925C5.93441 41.3738 5.76956 41.7035 5.43989 41.7035L6.26407 39.5606ZM6.42892 38.4067C6.59376 38.4067 6.75859 38.2418 6.75859 38.077C6.75859 37.9122 6.59376 37.7474 6.42892 37.7474C6.26408 37.7474 6.09925 37.9122 6.09925 38.077C5.93441 38.2418 6.09924 38.4067 6.42892 38.4067ZM4.12121 38.077H2.14314V38.2419C2.80249 38.4067 2.80251 38.4067 2.47284 39.2309L1.81347 41.0441C1.4838 41.7035 1.48381 41.8683 0.824463 42.0332V42.198H3.79151L4.45088 41.0441H4.28603C3.95636 41.3738 3.46185 42.0332 2.8025 42.0332C2.30799 42.0332 2.308 41.8683 2.47284 41.209L3.13217 39.3957C3.46185 38.7364 3.46186 38.5715 4.12121 38.4067V38.077Z" fill="black"/>
<path d="M11.8685 8.73612C12.0334 8.57128 12.0334 8.57126 12.1982 8.40642C12.363 8.24159 12.5279 7.91192 12.8575 7.74708L13.0224 7.58224C12.8575 7.58224 12.8575 7.74708 12.8575 7.74708L13.0224 7.58224C12.8575 7.58224 12.5279 7.74709 12.363 7.91193C12.363 7.91193 12.363 7.91193 12.1982 7.91193C11.8685 8.07677 11.7037 8.24159 11.374 8.40642C11.2092 8.40642 11.2092 8.57127 11.0443 8.57127C10.8795 8.57127 10.7147 8.57127 10.5498 8.57127C10.385 8.57127 10.0553 8.57128 9.89048 8.73612C9.72564 8.73612 9.72562 8.73613 9.56078 8.90097C9.56078 8.90097 9.5608 9.06582 9.39596 9.06582C9.23112 9.06582 9.23113 9.23061 9.06629 9.23061C8.90145 9.39545 8.90143 9.39547 8.7366 9.56031C8.7366 9.56031 8.7366 9.5603 8.7366 9.39546C8.7366 9.39546 8.7366 9.39545 8.7366 9.23061C8.90143 9.06578 8.90145 9.06582 9.06629 9.06582C9.06629 9.06582 9.06628 9.06582 8.90145 9.06582C8.90145 9.06582 8.90143 9.23061 8.7366 9.23061C8.7366 9.23061 8.73661 9.23065 8.90145 9.06582C8.90145 9.06582 9.06629 9.06581 9.06629 8.90097C8.90145 8.90097 8.90143 9.06582 8.7366 9.06582C8.7366 9.06582 8.73661 9.06581 8.90145 8.90097C9.56079 8.40646 10.385 8.5713 11.0443 8.24163C11.0443 8.24163 11.2092 8.24162 11.2092 8.07678C11.374 8.07678 11.374 7.91193 11.5389 7.91193C11.7037 7.74709 11.8685 7.74711 11.8685 7.41744C11.7037 7.74711 11.374 7.91194 11.0443 8.07678C10.7147 8.24162 10.2202 8.24163 9.89048 8.24163C9.89048 8.24163 9.89046 8.24163 10.0553 8.24163C10.0553 8.24163 10.0553 8.24162 10.0553 8.07678C10.0553 8.07678 10.2201 8.07678 10.0553 8.07678C10.0553 8.07678 9.89047 8.07678 9.72563 8.07678V7.91193C10.0553 7.74709 10.2201 7.58228 10.5498 7.41744H10.385C10.5498 7.41744 10.7147 7.25259 10.8795 7.25259H10.7147C10.7147 7.25259 10.7147 7.25259 10.8795 7.25259C10.8795 7.25259 10.8795 7.25259 11.0443 7.25259L11.2092 7.08774C11.374 6.9229 11.374 6.75809 11.374 6.59325C11.2092 6.75809 10.8795 6.92289 10.5498 6.92289C10.5498 6.92289 10.5498 6.92289 10.385 6.92289C10.2201 6.92289 10.2201 6.92289 10.0553 6.92289L9.89048 6.75805C9.72564 6.59321 9.5608 6.59325 9.39596 6.59325C8.90145 6.42841 8.40692 6.4284 7.91241 6.4284C8.07725 6.26356 8.40694 6.26355 8.57178 6.26355C8.90145 6.09872 9.23111 6.09871 9.56078 6.09871H9.39596C9.06629 6.09871 8.90145 6.09872 8.57178 6.26355C8.40694 6.26355 8.2421 6.4284 8.07726 6.4284C7.91242 6.4284 7.91243 6.59325 7.74759 6.59325C7.91243 6.42841 8.07725 6.09871 8.40693 6.09871C8.7366 6.09871 9.06629 6.09871 9.39596 6.09871C9.5608 6.09871 9.89046 6.09872 10.0553 6.26355C10.2201 6.26355 10.2201 6.4284 10.2201 6.4284C10.385 6.4284 10.385 6.4284 10.5498 6.4284C10.5498 6.4284 10.5498 6.42839 10.5498 6.26355H10.7147C10.8795 6.09872 10.5498 5.93386 10.5498 5.93386C10.7147 6.0987 10.8795 6.26355 11.0443 6.26355C11.2092 6.26355 11.374 6.42839 11.374 6.26355C11.2092 6.09872 11.0443 5.9339 10.8795 5.76906C10.8795 5.76906 10.8795 5.60421 10.7147 5.60421C10.7147 5.43937 10.7147 5.43935 10.7147 5.27452C10.7147 5.10968 10.7147 5.10971 10.7147 4.94487C10.7147 4.6152 10.5498 4.28552 10.5498 4.12068C10.5498 3.79101 10.7147 3.46132 10.8795 3.13165C11.0443 2.96681 11.2092 2.63714 11.374 2.4723C11.374 2.30747 11.5388 2.14259 11.7037 1.81291C11.8685 1.64808 12.0334 1.48327 12.1982 1.48327C12.5279 1.31843 12.6927 1.31842 12.6927 1.31842H0.000244141V11.0438H9.06629C9.39597 10.7142 9.72564 10.7142 10.2201 10.3845C11.2092 9.0658 11.7037 8.90096 11.8685 8.73612ZM9.06629 7.41744C8.90145 7.41744 9.06629 7.41744 9.06629 7.41744C8.90145 7.2526 9.06629 7.2526 9.06629 7.41744C9.23113 7.2526 9.23112 7.25259 9.39596 7.25259H9.56078C9.39595 7.41743 9.23113 7.2526 9.06629 7.41744ZM6.26404 6.92289C6.42888 6.59322 6.59372 6.26353 6.75856 5.93386C6.92339 5.76902 7.25308 5.6042 7.41792 5.43936C7.74759 5.10969 8.07725 4.78001 8.40693 4.61518C8.57177 4.61518 8.73661 4.61518 8.90145 4.61518C8.90145 4.61518 8.7366 4.61519 8.7366 4.78002C8.57176 4.94486 8.2421 5.10968 8.07726 5.27452C7.91242 5.43935 7.91242 5.76906 7.58274 5.76906C7.08823 6.09874 6.59371 6.42838 6.26404 6.92289ZM7.74759 5.76906C7.58275 5.9339 7.74759 5.9339 7.74759 5.76906C7.58275 5.9339 7.58274 5.93386 7.58274 5.93386C7.58274 5.76902 7.58275 5.76906 7.74759 5.76906ZM8.57178 8.57127C8.57178 8.73611 8.40693 8.73612 8.40693 8.73612H8.24211L8.40693 8.57127C8.40693 8.57127 8.40694 8.57127 8.57178 8.57127C8.57178 8.57127 8.40694 8.57127 8.57178 8.57127ZM8.24211 8.40642L8.07726 8.57127C8.07726 8.57127 7.91241 8.57128 7.91241 8.73612L7.74759 8.90097C7.74759 8.90097 7.74758 8.90098 7.58274 9.06582C7.58274 9.06582 7.58274 9.06581 7.58274 8.90097C7.58274 8.90097 7.58275 8.90096 7.74759 8.73612C7.91243 8.57128 8.24209 8.57126 8.40693 8.40642C8.57177 8.40642 8.57176 8.40642 8.7366 8.40642H8.90145C8.57177 8.24159 8.40694 8.24159 8.24211 8.40642ZM8.7366 7.08774C8.57176 7.08774 8.7366 7.08774 8.7366 7.08774C8.57176 7.08774 8.7366 7.08774 8.7366 7.08774C8.57176 7.08774 8.57176 7.08774 8.7366 7.08774C8.57176 7.08774 8.40693 7.08774 8.40693 7.08774C8.24209 7.08774 8.2421 7.25259 8.07726 7.25259C7.91242 7.25259 7.74759 7.4174 7.41792 7.58224C7.41792 7.58224 7.58274 7.58228 7.58274 7.41744C7.74758 7.2526 7.91242 7.08773 8.07726 6.92289L8.24211 6.75805L8.40693 6.59325H8.24211C8.24211 6.59325 8.24209 6.59325 8.40693 6.59325C8.40693 6.59325 8.40694 6.59324 8.57178 6.4284H8.7366C8.57176 6.4284 8.40693 6.4284 8.40693 6.4284C8.57177 6.26356 8.57177 5.93386 8.90145 5.93386C8.90145 6.0987 8.90143 6.09871 8.7366 6.09871C8.90143 6.09871 9.06628 6.09872 9.23111 6.26355C9.39595 6.26355 9.39595 6.26356 9.56078 6.4284H9.39596C9.89047 6.59324 10.5498 6.75807 11.0443 7.08774C10.7147 7.25258 10.2201 7.41744 9.72563 7.41744H9.56078H9.39596C8.90145 7.08776 8.7366 7.08774 8.7366 7.08774Z" fill="#273375"/>
<path d="M27.6927 0.000411987H17.1431C17.1431 0.000411987 17.1431 0.000411987 17.308 0.000411987C17.4728 0.000411987 17.4728 0.16521 17.6376 0.16521C17.8025 0.16521 17.9673 0.330067 17.9673 0.494905C17.9673 0.494905 18.1322 0.659753 17.9673 0.659753C17.9673 0.824591 17.9673 0.824561 17.8025 0.989398C17.6376 0.989398 17.4728 0.989398 17.4728 0.989398H17.308C17.6377 1.15424 17.8025 1.15427 17.9673 1.48394H18.1322C18.1322 1.48394 18.1322 1.48395 18.1322 1.64879C18.297 1.64879 18.1322 1.48394 18.297 1.48394C18.4618 1.48394 18.4618 1.64875 18.297 1.81359L18.1322 1.97844V2.14328C18.1322 2.14328 18.1322 2.30813 18.297 2.30813C18.297 2.47297 18.297 2.63778 18.4618 2.63778C18.4618 2.96745 18.6267 3.13229 18.6267 3.46197C18.6267 3.6268 18.6267 3.79167 18.6267 3.95651C18.6267 4.12135 18.7915 4.28615 18.7915 4.28615C18.7915 4.45099 18.9564 4.45101 18.9564 4.61585C19.1212 4.78069 19.286 4.94552 19.1212 5.27519C19.1212 5.44003 18.7915 5.44004 18.7915 5.44004C18.6267 5.60488 18.7915 5.6049 18.7915 5.76973C18.9563 5.93457 18.6267 6.09938 18.6267 6.09938H18.7915C18.7915 6.26422 18.9563 6.26423 18.7915 6.26423C18.7915 6.42907 18.4618 6.42909 18.6267 6.59392C18.6267 6.75876 18.6267 6.92357 18.6267 6.92357C18.6267 7.08841 18.4618 7.08843 18.297 7.25326C18.1322 7.25326 18.1322 7.25326 17.9673 7.25326C17.9673 7.25326 17.9673 7.25326 17.8025 7.25326C17.4728 7.25326 17.1431 7.08842 16.8135 7.08842C16.6486 7.08842 16.6486 7.08842 16.4838 7.08842C16.319 7.08842 16.3189 7.25326 16.3189 7.25326L16.1541 7.41811C16.1541 7.58295 15.9893 7.58292 15.9893 7.74776C15.8244 8.24227 15.9893 8.57195 15.9893 8.57195C15.9893 8.57195 16.6486 8.7368 16.9783 8.90164C17.1431 9.06648 17.308 9.06649 17.4728 9.06649H27.8576V0.000411987H27.6927Z" fill="#E30613"/>
<path d="M17.8024 3.62659H17.9673C17.9673 3.79143 17.6376 3.79145 17.6376 3.95628C17.6376 3.95628 17.6376 4.12113 17.4727 4.12113H17.3079C17.3079 4.12113 17.4727 4.28593 17.6376 4.28593H17.4727C17.6376 4.28593 17.8024 4.28593 17.9673 4.28593C18.1321 4.28593 17.9673 4.12112 17.9673 3.95628C17.9673 3.95628 17.9673 3.79144 18.1321 3.79144H18.2969C18.2969 3.79144 18.2969 3.79143 18.2969 3.62659C18.4618 3.62659 18.4618 3.46178 18.4618 3.29694C18.4618 3.29694 18.2969 3.29693 18.1321 3.1321C17.9673 3.46177 17.8024 3.46175 17.8024 3.62659C17.6376 3.46175 17.4727 3.46175 17.4727 3.62659C17.3079 3.62659 17.3079 3.79144 17.1431 3.79144C17.3079 3.79144 17.4727 3.79143 17.4727 3.62659C17.6376 3.62659 17.6376 3.62659 17.8024 3.62659Z" fill="#9D9D9C"/>
</svg>
