<svg width="24" height="24" viewBox="0 0 24 24" fill="none" xmlns="http://www.w3.org/2000/svg">
<path fill-rule="evenodd" clip-rule="evenodd" d="M18.031 16.6165L22.314 20.8985L20.899 22.3135L16.617 18.0305C15.0237 19.3077 13.042 20.0024 11 19.9995C6.032 19.9995 2 15.9675 2 10.9995C2 6.03151 6.032 1.99951 11 1.99951C15.968 1.99951 20 6.03151 20 10.9995C20.0029 13.0415 19.3082 15.0232 18.031 16.6165ZM16.025 15.8745C17.2941 14.5694 18.0029 12.8199 18 10.9995C18 7.13151 14.867 3.99951 11 3.99951C7.132 3.99951 4 7.13151 4 10.9995C4 14.8665 7.132 17.9995 11 17.9995C12.8204 18.0024 14.5699 17.2936 15.875 16.0245L16.025 15.8745Z" fill="#F5F5FE"/>
</svg>
