<svg width="48" height="48" viewBox="0 0 48 48" fill="none" xmlns="http://www.w3.org/2000/svg">
<rect width="48" height="48" transform="translate(0 -0.000488281)" fill="#000091"/>
<path d="M18.17 29.9995C18.3766 29.414 18.7597 28.907 19.2666 28.5483C19.7735 28.1897 20.3791 27.9971 21 27.9971C21.6209 27.9971 22.2265 28.1897 22.7334 28.5483C23.2403 28.907 23.6234 29.414 23.83 29.9995H34V31.9995H23.83C23.6234 32.5851 23.2403 33.0921 22.7334 33.4507C22.2265 33.8094 21.6209 34.002 21 34.002C20.3791 34.002 19.7735 33.8094 19.2666 33.4507C18.7597 33.0921 18.3766 32.5851 18.17 31.9995H14V29.9995H18.17ZM24.17 22.9995C24.3766 22.414 24.7597 21.907 25.2666 21.5483C25.7735 21.1897 26.3791 20.9971 27 20.9971C27.6209 20.9971 28.2265 21.1897 28.7334 21.5483C29.2403 21.907 29.6234 22.414 29.83 22.9995H34V24.9995H29.83C29.6234 25.5851 29.2403 26.0921 28.7334 26.4507C28.2265 26.8094 27.6209 27.002 27 27.002C26.3791 27.002 25.7735 26.8094 25.2666 26.4507C24.7597 26.0921 24.3766 25.5851 24.17 24.9995H14V22.9995H24.17ZM18.17 15.9995C18.3766 15.414 18.7597 14.907 19.2666 14.5483C19.7735 14.1897 20.3791 13.9971 21 13.9971C21.6209 13.9971 22.2265 14.1897 22.7334 14.5483C23.2403 14.907 23.6234 15.414 23.83 15.9995H34V17.9995H23.83C23.6234 18.5851 23.2403 19.0921 22.7334 19.4507C22.2265 19.8094 21.6209 20.002 21 20.002C20.3791 20.002 19.7735 19.8094 19.2666 19.4507C18.7597 19.0921 18.3766 18.5851 18.17 17.9995H14V15.9995H18.17Z" fill="white"/>
</svg>
