<svg width="14" height="14" viewBox="0 0 14 14" fill="none" xmlns="http://www.w3.org/2000/svg">
<path d="M3.11325 10.9995C3.25099 10.6092 3.50641 10.2711 3.84432 10.032C4.18223 9.79294 4.58598 9.66454 4.99992 9.66454C5.41386 9.66454 5.81761 9.79294 6.15552 10.032C6.49343 10.2711 6.74885 10.6092 6.88659 10.9995H13.6666V12.3328H6.88659C6.74885 12.7232 6.49343 13.0612 6.15552 13.3003C5.81761 13.5394 5.41386 13.6678 4.99992 13.6678C4.58598 13.6678 4.18223 13.5394 3.84432 13.3003C3.50641 13.0612 3.25099 12.7232 3.11325 12.3328H0.333252V10.9995H3.11325ZM7.11325 6.33284C7.25099 5.94249 7.50641 5.60446 7.84432 5.36537C8.18223 5.12627 8.58598 4.99787 8.99992 4.99787C9.41386 4.99787 9.81761 5.12627 10.1555 5.36537C10.4934 5.60446 10.7489 5.94249 10.8866 6.33284H13.6666V7.66617H10.8866C10.7489 8.05653 10.4934 8.39455 10.1555 8.63365C9.81761 8.87274 9.41386 9.00114 8.99992 9.00114C8.58598 9.00114 8.18223 8.87274 7.84432 8.63365C7.50641 8.39455 7.25099 8.05653 7.11325 7.66617H0.333252V6.33284H7.11325ZM3.11325 1.66617C3.25099 1.27582 3.50641 0.937797 3.84432 0.698701C4.18223 0.459605 4.58598 0.331207 4.99992 0.331207C5.41386 0.331207 5.81761 0.459605 6.15552 0.698701C6.49343 0.937797 6.74885 1.27582 6.88659 1.66617H13.6666V2.99951H6.88659C6.74885 3.38986 6.49343 3.72789 6.15552 3.96698C5.81761 4.20608 5.41386 4.33448 4.99992 4.33448C4.58598 4.33448 4.18223 4.20608 3.84432 3.96698C3.50641 3.72789 3.25099 3.38986 3.11325 2.99951H0.333252V1.66617H3.11325Z" fill="#000091"/>
</svg>
