<svg width="16" height="16" viewBox="0 0 16 16" fill="none" xmlns="http://www.w3.org/2000/svg">
<g clip-path="url(#clip0_559_5357)">
<path fill-rule="evenodd" clip-rule="evenodd" d="M1.06665 1.59951C1.06665 1.17517 1.23522 0.768199 1.53528 0.468141C1.83534 0.168083 2.2423 -0.000488281 2.66665 -0.000488281L13.3333 -0.000488281C13.7577 -0.000488281 14.1646 0.168083 14.4647 0.468141C14.7647 0.768199 14.9333 1.17517 14.9333 1.59951V14.3995C14.9333 14.8239 14.7647 15.2308 14.4647 15.5309C14.1646 15.8309 13.7577 15.9995 13.3333 15.9995H2.66665C2.2423 15.9995 1.83534 15.8309 1.53528 15.5309C1.23522 15.2308 1.06665 14.8239 1.06665 14.3995V1.59951ZM4.26665 5.33285H11.7333V4.26618H4.26665V5.33285ZM4.26665 9.59951H5.33332V8.53285H4.26665V9.59951ZM8.53332 9.59951H7.46665V8.53285H8.53332V9.59951ZM10.6667 9.59951H11.7333V8.53285H10.6667V9.59951ZM5.33332 12.7995H4.26665V11.7328H5.33332V12.7995ZM7.46665 12.7995H8.53332V11.7328H7.46665V12.7995ZM11.7333 12.7995H10.6667V11.7328H11.7333V12.7995Z" fill="#000091"/>
</g>
<defs>
<clipPath id="clip0_559_5357">
<rect width="16" height="16" fill="white" transform="translate(0 -0.000488281)"/>
</clipPath>
</defs>
</svg>
